REM DIRINDEX 1\2,1\3,1\4,1\5\6,1\5\7,1\8
REM DIRNAME cjc115,folder01,folder02,folder03,folder04,folder05,folder06,folder07
TITLE ""
FILE "085 【085】Unit5 (0961 retrieve_0972 tentative).mp3" MP3
  TRACK 01 AUDIO
    TITLE "0:"
    INDEX 01 00:00:00
  TRACK 02 AUDIO
    TITLE "2:cjc115_3324"
    INDEX 01 00:00:07
  TRACK 03 AUDIO
    TITLE "0:"
    INDEX 01 00:01:26
  TRACK 04 AUDIO
    TITLE "3:cjc115_3325"
    INDEX 01 00:01:28
  TRACK 05 AUDIO
    TITLE "0:"
    INDEX 01 00:05:12
  TRACK 06 AUDIO
    TITLE "4:cjc115_3326"
    INDEX 01 00:05:20
  TRACK 07 AUDIO
    TITLE "0:"
    INDEX 01 00:09:38
  TRACK 08 AUDIO
    TITLE "2:cjc115_3327"
    INDEX 01 00:10:49
  TRACK 09 AUDIO
    TITLE "0:"
    INDEX 01 00:11:64
  TRACK 10 AUDIO
    TITLE "3:cjc115_3328"
    INDEX 01 00:11:72
  TRACK 11 AUDIO
    TITLE "0:"
    INDEX 01 00:13:26
  TRACK 12 AUDIO
    TITLE "4:cjc115_3329"
    INDEX 01 00:13:35
  TRACK 13 AUDIO
    TITLE "0:"
    INDEX 01 00:17:27
  TRACK 14 AUDIO
    TITLE "2:cjc115_3330"
    INDEX 01 00:18:35
  TRACK 15 AUDIO
    TITLE "0:"
    INDEX 01 00:19:48
  TRACK 16 AUDIO
    TITLE "3:cjc115_3331"
    INDEX 01 00:19:56
  TRACK 17 AUDIO
    TITLE "0:"
    INDEX 01 00:20:73
  TRACK 18 AUDIO
    TITLE "4:cjc115_3332"
    INDEX 01 00:21:06
  TRACK 19 AUDIO
    TITLE "0:"
    INDEX 01 00:24:29
  TRACK 20 AUDIO
    TITLE "2:cjc115_3333"
    INDEX 01 00:25:35
  TRACK 21 AUDIO
    TITLE "0:"
    INDEX 01 00:26:40
  TRACK 22 AUDIO
    TITLE "3:cjc115_3334"
    INDEX 01 00:26:46
  TRACK 23 AUDIO
    TITLE "0:"
    INDEX 01 00:29:05
  TRACK 24 AUDIO
    TITLE "4:cjc115_3335"
    INDEX 01 00:29:13
  TRACK 25 AUDIO
    TITLE "0:"
    INDEX 01 00:31:67
  TRACK 26 AUDIO
    TITLE "2:cjc115_3336"
    INDEX 01 00:33:01
  TRACK 27 AUDIO
    TITLE "0:"
    INDEX 01 00:33:73
  TRACK 28 AUDIO
    TITLE "3:cjc115_3337"
    INDEX 01 00:34:08
  TRACK 29 AUDIO
    TITLE "0:"
    INDEX 01 00:35:55
  TRACK 30 AUDIO
    TITLE "4:cjc115_3338"
    INDEX 01 00:35:57
  TRACK 31 AUDIO
    TITLE "0:"
    INDEX 01 00:39:23
  TRACK 32 AUDIO
    TITLE "2:cjc115_3339"
    INDEX 01 00:40:32
  TRACK 33 AUDIO
    TITLE "0:"
    INDEX 01 00:41:45
  TRACK 34 AUDIO
    TITLE "3:cjc115_3340"
    INDEX 01 00:41:55
  TRACK 35 AUDIO
    TITLE "0:"
    INDEX 01 00:43:01
  TRACK 36 AUDIO
    TITLE "4:cjc115_3341"
    INDEX 01 00:43:03
  TRACK 37 AUDIO
    TITLE "0:"
    INDEX 01 00:45:55
  TRACK 38 AUDIO
    TITLE "2:cjc115_3342"
    INDEX 01 00:46:74
  TRACK 39 AUDIO
    TITLE "0:"
    INDEX 01 00:48:06
  TRACK 40 AUDIO
    TITLE "3:cjc115_3343"
    INDEX 01 00:48:14
  TRACK 41 AUDIO
    TITLE "0:"
    INDEX 01 00:49:37
  TRACK 42 AUDIO
    TITLE "4:cjc115_3344"
    INDEX 01 00:49:39
  TRACK 43 AUDIO
    TITLE "0:"
    INDEX 01 00:52:41
  TRACK 44 AUDIO
    TITLE "2:cjc115_3345"
    INDEX 01 00:53:53
  TRACK 45 AUDIO
    TITLE "0:"
    INDEX 01 00:55:03
  TRACK 46 AUDIO
    TITLE "3:cjc115_3346"
    INDEX 01 00:55:04
  TRACK 47 AUDIO
    TITLE "0:"
    INDEX 01 00:57:37
  TRACK 48 AUDIO
    TITLE "4:cjc115_3347"
    INDEX 01 00:57:45
  TRACK 49 AUDIO
    TITLE "0:"
    INDEX 01 01:01:01
  TRACK 50 AUDIO
    TITLE "2:cjc115_3348"
    INDEX 01 01:02:08
  TRACK 51 AUDIO
    TITLE "0:"
    INDEX 01 01:03:29
  TRACK 52 AUDIO
    TITLE "3:cjc115_3349"
    INDEX 01 01:03:31
  TRACK 53 AUDIO
    TITLE "0:"
    INDEX 01 01:04:64
  TRACK 54 AUDIO
    TITLE "4:cjc115_3350"
    INDEX 01 01:04:68
  TRACK 55 AUDIO
    TITLE "0:"
    INDEX 01 01:08:60
  TRACK 56 AUDIO
    TITLE "2:cjc115_3351"
    INDEX 01 01:09:65
  TRACK 57 AUDIO
    TITLE "0:"
    INDEX 01 01:10:67
  TRACK 58 AUDIO
    TITLE "3:cjc115_3352"
    INDEX 01 01:11:00
  TRACK 59 AUDIO
    TITLE "0:"
    INDEX 01 01:12:54
  TRACK 60 AUDIO
    TITLE "4:cjc115_3353"
    INDEX 01 01:12:60
  TRACK 61 AUDIO
    TITLE "0:"
    INDEX 01 01:15:15
  TRACK 62 AUDIO
    TITLE "2:cjc115_3354"
    INDEX 01 01:16:24
  TRACK 63 AUDIO
    TITLE "0:"
    INDEX 01 01:17:53
  TRACK 64 AUDIO
    TITLE "3:cjc115_3355"
    INDEX 01 01:17:61
  TRACK 65 AUDIO
    TITLE "0:"
    INDEX 01 01:20:18
  TRACK 66 AUDIO
    TITLE "4:cjc115_3356"
    INDEX 01 01:20:26
  TRACK 67 AUDIO
    TITLE "0:"
    INDEX 01 01:23:24
  TRACK 68 AUDIO
    TITLE "2:cjc115_3357"
    INDEX 01 01:24:32
  TRACK 69 AUDIO
    TITLE "0:"
    INDEX 01 01:25:45
  TRACK 70 AUDIO
    TITLE "3:cjc115_3358"
    INDEX 01 01:25:49
  TRACK 71 AUDIO
    TITLE "0:"
    INDEX 01 01:27:69
  TRACK 72 AUDIO
    TITLE "4:cjc115_3359"
    INDEX 01 01:28:04
  TRACK 73 AUDIO
    TITLE "0:"
    INDEX 01 01:32:04
